<?xml version="1.0" encoding="UTF-8" standalone="no"?>
<!DOCTYPE svg PUBLIC "-//W3C//DTD SVG 1.0//EN" "http://www.w3.org/TR/2001/PR-SVG-20010719/DTD/svg10.dtd">
<svg width="18cm" height="23cm" viewBox="121 57 359 452" xmlns="http://www.w3.org/2000/svg" xmlns:xlink="http://www.w3.org/1999/xlink">
  <g>
    <ellipse style="fill: #ffffff" cx="148" cy="77" rx="6" ry="6"/>
    <ellipse style="fill: none; fill-opacity:0; stroke-width: 2; stroke: #000000" cx="148" cy="77" rx="6" ry="6"/>
    <line style="fill: none; fill-opacity:0; stroke-width: 2; stroke: #000000" x1="124" y1="89" x2="172" y2="89"/>
    <line style="fill: none; fill-opacity:0; stroke-width: 2; stroke: #000000" x1="148" y1="83" x2="148" y2="113"/>
    <line style="fill: none; fill-opacity:0; stroke-width: 2; stroke: #000000" x1="148" y1="113" x2="124" y2="139"/>
    <line style="fill: none; fill-opacity:0; stroke-width: 2; stroke: #000000" x1="148" y1="113" x2="172" y2="139"/>
    <text font-size="12.7998" style="fill: #000000;text-anchor:middle;font-family:sans-serif;font-style:normal;font-weight:normal" x="148" y="162.9">
      <tspan x="148" y="162.9">Spieler</tspan>
    </text>
  </g>
  <g>
    <ellipse style="fill: #ffffff" cx="154.9" cy="284.3" rx="6" ry="6"/>
    <ellipse style="fill: none; fill-opacity:0; stroke-width: 2; stroke: #000000" cx="154.9" cy="284.3" rx="6" ry="6"/>
    <line style="fill: none; fill-opacity:0; stroke-width: 2; stroke: #000000" x1="130.9" y1="296.3" x2="178.9" y2="296.3"/>
    <line style="fill: none; fill-opacity:0; stroke-width: 2; stroke: #000000" x1="154.9" y1="290.3" x2="154.9" y2="320.3"/>
    <line style="fill: none; fill-opacity:0; stroke-width: 2; stroke: #000000" x1="154.9" y1="320.3" x2="130.9" y2="346.3"/>
    <line style="fill: none; fill-opacity:0; stroke-width: 2; stroke: #000000" x1="154.9" y1="320.3" x2="178.9" y2="346.3"/>
    <text font-size="12.7998" style="fill: #000000;text-anchor:middle;font-family:sans-serif;font-style:normal;font-weight:normal" x="154.9" y="370.2">
      <tspan x="154.9" y="370.2">Spielleiter</tspan>
    </text>
  </g>
  <g>
    <ellipse style="fill: #ffffff" cx="160.125" cy="418.3" rx="6" ry="6"/>
    <ellipse style="fill: none; fill-opacity:0; stroke-width: 2; stroke: #000000" cx="160.125" cy="418.3" rx="6" ry="6"/>
    <line style="fill: none; fill-opacity:0; stroke-width: 2; stroke: #000000" x1="136.125" y1="430.3" x2="184.125" y2="430.3"/>
    <line style="fill: none; fill-opacity:0; stroke-width: 2; stroke: #000000" x1="160.125" y1="424.3" x2="160.125" y2="454.3"/>
    <line style="fill: none; fill-opacity:0; stroke-width: 2; stroke: #000000" x1="160.125" y1="454.3" x2="136.125" y2="480.3"/>
    <line style="fill: none; fill-opacity:0; stroke-width: 2; stroke: #000000" x1="160.125" y1="454.3" x2="184.125" y2="480.3"/>
    <text font-size="12.7998" style="fill: #000000;text-anchor:middle;font-family:sans-serif;font-style:normal;font-weight:normal" x="160.125" y="504.2">
      <tspan x="160.125" y="504.2">Händler</tspan>
    </text>
  </g>
  <g>
    <line style="fill: none; fill-opacity:0; stroke-width: 2; stroke: #000000" x1="173.994" y1="113.178" x2="284.264" y2="113.933"/>
    <polygon style="fill: #000000" points="291.764,113.985 281.73,118.916 284.264,113.933 281.798,108.916 "/>
    <polygon style="fill: none; fill-opacity:0; stroke-width: 2; stroke: #000000" points="291.764,113.985 281.73,118.916 284.264,113.933 281.798,108.916 "/>
  </g>
  <g>
    <rect style="fill: #ffffff" x="294" y="96" width="118.35" height="36" rx="20" ry="20"/>
    <rect style="fill: none; fill-opacity:0; stroke-width: 2; stroke: #000000" x="294" y="96" width="118.35" height="36" rx="20" ry="20"/>
    <text font-size="12.7998" style="fill: #000000;text-anchor:middle;font-family:sans-serif;font-style:normal;font-weight:normal" x="353.175" y="117.9">
      <tspan x="353.175" y="117.9">Spielt das Spiel</tspan>
    </text>
  </g>
  <g>
    <line style="fill: none; fill-opacity:0; stroke-width: 2; stroke: #000000" x1="187.076" y1="307.148" x2="282.888" y2="267.984"/>
    <polygon style="fill: #000000" points="289.83,265.146 282.465,273.558 282.888,267.984 278.682,264.301 "/>
    <polygon style="fill: none; fill-opacity:0; stroke-width: 2; stroke: #000000" points="289.83,265.146 282.465,273.558 282.888,267.984 278.682,264.301 "/>
  </g>
  <g>
    <rect style="fill: #ffffff" x="293.9" y="348.3" width="185.5" height="36" rx="20" ry="20"/>
    <rect style="fill: none; fill-opacity:0; stroke-width: 2; stroke: #000000" x="293.9" y="348.3" width="185.5" height="36" rx="20" ry="20"/>
    <text font-size="12.7998" style="fill: #000000;text-anchor:middle;font-family:sans-serif;font-style:normal;font-weight:normal" x="386.65" y="370.2">
      <tspan x="386.65" y="370.2">Evaluation der Spielfelder</tspan>
    </text>
  </g>
  <g>
    <rect style="fill: #ffffff" x="294.9" y="297.3" width="99.55" height="36" rx="20" ry="20"/>
    <rect style="fill: none; fill-opacity:0; stroke-width: 2; stroke: #000000" x="294.9" y="297.3" width="99.55" height="36" rx="20" ry="20"/>
    <text font-size="12.7998" style="fill: #000000;text-anchor:middle;font-family:sans-serif;font-style:normal;font-weight:normal" x="344.675" y="319.2">
      <tspan x="344.675" y="319.2">Pflege Items</tspan>
    </text>
  </g>
  <g>
    <rect style="fill: #ffffff" x="291.9" y="246.3" width="114.2" height="36" rx="20" ry="20"/>
    <rect style="fill: none; fill-opacity:0; stroke-width: 2; stroke: #000000" x="291.9" y="246.3" width="114.2" height="36" rx="20" ry="20"/>
    <text font-size="12.7998" style="fill: #000000;text-anchor:middle;font-family:sans-serif;font-style:normal;font-weight:normal" x="349" y="268.2">
      <tspan x="349" y="268.2">Pflege Händler</tspan>
    </text>
  </g>
  <g>
    <rect style="fill: #ffffff" x="293.9" y="471.3" width="130.175" height="36" rx="20" ry="20"/>
    <rect style="fill: none; fill-opacity:0; stroke-width: 2; stroke: #000000" x="293.9" y="471.3" width="130.175" height="36" rx="20" ry="20"/>
    <text font-size="12.7998" style="fill: #000000;text-anchor:middle;font-family:sans-serif;font-style:normal;font-weight:normal" x="358.988" y="493.2">
      <tspan x="358.988" y="493.2">Zuordnung Items</tspan>
    </text>
  </g>
  <g>
    <rect style="fill: #ffffff" x="295.9" y="412.3" width="128.95" height="36" rx="20" ry="20"/>
    <rect style="fill: none; fill-opacity:0; stroke-width: 2; stroke: #000000" x="295.9" y="412.3" width="128.95" height="36" rx="20" ry="20"/>
    <text font-size="12.7998" style="fill: #000000;text-anchor:middle;font-family:sans-serif;font-style:normal;font-weight:normal" x="360.375" y="434.2">
      <tspan x="360.375" y="434.2">Metadatenpflege</tspan>
    </text>
  </g>
  <g>
    <line style="fill: none; fill-opacity:0; stroke-width: 2; stroke: #000000" x1="186.121" y1="449.705" x2="286.313" y2="431.995"/>
    <polygon style="fill: #000000" points="293.698,430.689 284.721,437.354 286.313,431.995 282.98,427.506 "/>
    <polygon style="fill: none; fill-opacity:0; stroke-width: 2; stroke: #000000" points="293.698,430.689 284.721,437.354 286.313,431.995 282.98,427.506 "/>
  </g>
  <g>
    <line style="fill: none; fill-opacity:0; stroke-width: 2; stroke: #000000" x1="186.13" y1="461.104" x2="284.481" y2="486.836"/>
    <polygon style="fill: #000000" points="291.737,488.734 280.797,491.04 284.481,486.836 283.328,481.366 "/>
    <polygon style="fill: none; fill-opacity:0; stroke-width: 2; stroke: #000000" points="291.737,488.734 280.797,491.04 284.481,486.836 283.328,481.366 "/>
  </g>
  <g>
    <line style="fill: none; fill-opacity:0; stroke-width: 2; stroke: #000000" x1="187.129" y1="345.443" x2="288.224" y2="424.311"/>
    <polygon style="fill: #000000" points="294.137,428.925 283.177,426.716 288.224,424.311 289.328,418.831 "/>
    <polygon style="fill: none; fill-opacity:0; stroke-width: 2; stroke: #000000" points="294.137,428.925 283.177,426.716 288.224,424.311 289.328,418.831 "/>
  </g>
  <g>
    <line style="fill: none; fill-opacity:0; stroke-width: 2; stroke: #000000" x1="187.105" y1="330.958" x2="284.657" y2="363.241"/>
    <polygon style="fill: #000000" points="291.777,365.597 280.713,367.203 284.657,363.241 283.854,357.709 "/>
    <polygon style="fill: none; fill-opacity:0; stroke-width: 2; stroke: #000000" points="291.777,365.597 280.713,367.203 284.657,363.241 283.854,357.709 "/>
  </g>
  <g>
    <line style="fill: none; fill-opacity:0; stroke-width: 2; stroke: #000000" x1="187.114" y1="319.149" x2="285.17" y2="315.647"/>
    <polygon style="fill: #000000" points="292.665,315.38 282.85,320.734 285.17,315.647 282.493,310.74 "/>
    <polygon style="fill: none; fill-opacity:0; stroke-width: 2; stroke: #000000" points="292.665,315.38 282.85,320.734 285.17,315.647 282.493,310.74 "/>
  </g>
  <g>
    <rect style="fill: #ffffff" x="293" y="189" width="80" height="36" rx="20" ry="20"/>
    <rect style="fill: none; fill-opacity:0; stroke-width: 2; stroke: #000000" x="293" y="189" width="80" height="36" rx="20" ry="20"/>
    <text font-size="12.7998" style="fill: #000000;text-anchor:middle;font-family:sans-serif;font-style:normal;font-weight:normal" x="333" y="210.9">
      <tspan x="333" y="210.9">Staging</tspan>
    </text>
  </g>
  <g>
    <line style="fill: none; fill-opacity:0; stroke-width: 2; stroke: #000000" x1="187.065" y1="293.911" x2="285.473" y2="213.175"/>
    <polygon style="fill: #000000" points="291.271,208.418 286.712,218.627 285.473,213.175 280.369,210.895 "/>
    <polygon style="fill: none; fill-opacity:0; stroke-width: 2; stroke: #000000" points="291.271,208.418 286.712,218.627 285.473,213.175 280.369,210.895 "/>
  </g>
</svg>
