<?xml version="1.0" encoding="UTF-8" standalone="no"?>
<!-- Created with Inkscape (http://www.inkscape.org/) -->

<svg
   xmlns:dc="http://purl.org/dc/elements/1.1/"
   xmlns:cc="http://creativecommons.org/ns#"
   xmlns:rdf="http://www.w3.org/1999/02/22-rdf-syntax-ns#"
   xmlns:svg="http://www.w3.org/2000/svg"
   xmlns="http://www.w3.org/2000/svg"
   xmlns:sodipodi="http://sodipodi.sourceforge.net/DTD/sodipodi-0.dtd"
   xmlns:inkscape="http://www.inkscape.org/namespaces/inkscape"
   width="560.3736"
   height="446.78394"
   id="svg2"
   version="1.1"
   inkscape:version="0.48.4 r9939"
   sodipodi:docname="ch6_img03_ideal2d.svg">
  <defs
     id="defs4" />
  <sodipodi:namedview
     id="base"
     pagecolor="#ffffff"
     bordercolor="#666666"
     borderopacity="1.0"
     inkscape:pageopacity="0.0"
     inkscape:pageshadow="2"
     inkscape:zoom="0.7"
     inkscape:cx="337.76591"
     inkscape:cy="-68.094505"
     inkscape:document-units="px"
     inkscape:current-layer="layer1"
     showgrid="false"
     inkscape:window-width="1920"
     inkscape:window-height="1004"
     inkscape:window-x="0"
     inkscape:window-y="24"
     inkscape:window-maximized="1"
     fit-margin-top="0"
     fit-margin-left="0"
     fit-margin-right="0"
     fit-margin-bottom="0" />
  <metadata
     id="metadata7">
    <rdf:RDF>
      <cc:Work
         rdf:about="">
        <dc:format>image/svg+xml</dc:format>
        <dc:type
           rdf:resource="http://purl.org/dc/dcmitype/StillImage" />
        <dc:title />
      </cc:Work>
    </rdf:RDF>
  </metadata>
  <g
     inkscape:label="Ebene 1"
     inkscape:groupmode="layer"
     id="layer1"
     transform="translate(-36.36549,2.2493951)">
    <rect
       style="fill:#cccccc"
       id="rect2985"
       width="560.3736"
       height="446.78394"
       x="36.36549"
       y="-2.2493951" />
    <path
       sodipodi:type="arc"
       style="fill:#000000"
       id="path2989"
       sodipodi:cx="285.3681"
       sodipodi:cy="224.54218"
       sodipodi:rx="10.606602"
       sodipodi:ry="10.606602"
       d="m 295.9747,224.54218 c 0,5.85786 -4.74873,10.6066 -10.6066,10.6066 -5.85786,0 -10.6066,-4.74874 -10.6066,-10.6066 0,-5.85787 4.74874,-10.60661 10.6066,-10.60661 5.85787,0 10.6066,4.74874 10.6066,10.60661 z"
       transform="matrix(0.54543135,0,0,0.54543135,-49.863537,-50.895332)" />
    <path
       sodipodi:type="arc"
       style="fill:#000000"
       id="path2989-2"
       sodipodi:cx="285.3681"
       sodipodi:cy="224.54218"
       sodipodi:rx="10.606602"
       sodipodi:ry="10.606602"
       d="m 295.9747,224.54218 c 0,5.85786 -4.74873,10.6066 -10.6066,10.6066 -5.85786,0 -10.6066,-4.74874 -10.6066,-10.6066 0,-5.85787 4.74874,-10.60661 10.6066,-10.60661 5.85787,0 10.6066,4.74874 10.6066,10.60661 z"
       transform="matrix(0.54543135,0,0,0.54543135,50.136463,-50.895332)" />
    <path
       sodipodi:type="arc"
       style="fill:#000000"
       id="path2989-2-6"
       sodipodi:cx="285.3681"
       sodipodi:cy="224.54218"
       sodipodi:rx="10.606602"
       sodipodi:ry="10.606602"
       d="m 295.9747,224.54218 c 0,5.85786 -4.74873,10.6066 -10.6066,10.6066 -5.85786,0 -10.6066,-4.74874 -10.6066,-10.6066 0,-5.85787 4.74874,-10.60661 10.6066,-10.60661 5.85787,0 10.6066,4.74874 10.6066,10.60661 z"
       transform="matrix(0.54543135,0,0,0.54543135,150.13646,-50.895332)" />
    <path
       sodipodi:type="arc"
       style="fill:#000000"
       id="path2989-2-6-3"
       sodipodi:cx="285.3681"
       sodipodi:cy="224.54218"
       sodipodi:rx="10.606602"
       sodipodi:ry="10.606602"
       d="m 295.9747,224.54218 c 0,5.85786 -4.74873,10.6066 -10.6066,10.6066 -5.85786,0 -10.6066,-4.74874 -10.6066,-10.6066 0,-5.85787 4.74874,-10.60661 10.6066,-10.60661 5.85787,0 10.6066,4.74874 10.6066,10.60661 z"
       transform="matrix(0.54543135,0,0,0.54543135,250.13646,-50.895332)" />
    <path
       sodipodi:type="arc"
       style="fill:#000000"
       id="path2989-2-6-3-7"
       sodipodi:cx="285.3681"
       sodipodi:cy="224.54218"
       sodipodi:rx="10.606602"
       sodipodi:ry="10.606602"
       d="m 295.9747,224.54218 c 0,5.85786 -4.74873,10.6066 -10.6066,10.6066 -5.85786,0 -10.6066,-4.74874 -10.6066,-10.6066 0,-5.85787 4.74874,-10.60661 10.6066,-10.60661 5.85787,0 10.6066,4.74874 10.6066,10.60661 z"
       transform="matrix(0.54543135,0,0,0.54543135,350.13646,-50.895332)" />
    <path
       sodipodi:type="arc"
       style="fill:#000000"
       id="path2989-9"
       sodipodi:cx="285.3681"
       sodipodi:cy="224.54218"
       sodipodi:rx="10.606602"
       sodipodi:ry="10.606602"
       d="m 295.9747,224.54218 c 0,5.85786 -4.74873,10.6066 -10.6066,10.6066 -5.85786,0 -10.6066,-4.74874 -10.6066,-10.6066 0,-5.85787 4.74874,-10.60661 10.6066,-10.60661 5.85787,0 10.6066,4.74874 10.6066,10.60661 z"
       transform="matrix(0.54543135,0,0,0.54543135,-49.863537,49.104668)" />
    <path
       sodipodi:type="arc"
       style="fill:#000000"
       id="path2989-2-63"
       sodipodi:cx="285.3681"
       sodipodi:cy="224.54218"
       sodipodi:rx="10.606602"
       sodipodi:ry="10.606602"
       d="m 295.9747,224.54218 c 0,5.85786 -4.74873,10.6066 -10.6066,10.6066 -5.85786,0 -10.6066,-4.74874 -10.6066,-10.6066 0,-5.85787 4.74874,-10.60661 10.6066,-10.60661 5.85787,0 10.6066,4.74874 10.6066,10.60661 z"
       transform="matrix(0.54543135,0,0,0.54543135,50.136464,49.104668)" />
    <path
       sodipodi:type="arc"
       style="fill:#000000"
       id="path2989-2-6-7"
       sodipodi:cx="285.3681"
       sodipodi:cy="224.54218"
       sodipodi:rx="10.606602"
       sodipodi:ry="10.606602"
       d="m 295.9747,224.54218 c 0,5.85786 -4.74873,10.6066 -10.6066,10.6066 -5.85786,0 -10.6066,-4.74874 -10.6066,-10.6066 0,-5.85787 4.74874,-10.60661 10.6066,-10.60661 5.85787,0 10.6066,4.74874 10.6066,10.60661 z"
       transform="matrix(0.54543135,0,0,0.54543135,150.13646,49.104668)" />
    <path
       sodipodi:type="arc"
       style="fill:#000000"
       id="path2989-2-6-3-5"
       sodipodi:cx="285.3681"
       sodipodi:cy="224.54218"
       sodipodi:rx="10.606602"
       sodipodi:ry="10.606602"
       d="m 295.9747,224.54218 c 0,5.85786 -4.74873,10.6066 -10.6066,10.6066 -5.85786,0 -10.6066,-4.74874 -10.6066,-10.6066 0,-5.85787 4.74874,-10.60661 10.6066,-10.60661 5.85787,0 10.6066,4.74874 10.6066,10.60661 z"
       transform="matrix(0.54543135,0,0,0.54543135,250.13646,49.104668)" />
    <path
       sodipodi:type="arc"
       style="fill:#000000"
       id="path2989-2-6-3-7-7"
       sodipodi:cx="285.3681"
       sodipodi:cy="224.54218"
       sodipodi:rx="10.606602"
       sodipodi:ry="10.606602"
       d="m 295.9747,224.54218 c 0,5.85786 -4.74873,10.6066 -10.6066,10.6066 -5.85786,0 -10.6066,-4.74874 -10.6066,-10.6066 0,-5.85787 4.74874,-10.60661 10.6066,-10.60661 5.85787,0 10.6066,4.74874 10.6066,10.60661 z"
       transform="matrix(0.54543135,0,0,0.54543135,350.13646,49.104668)" />
    <path
       sodipodi:type="arc"
       style="fill:#000000"
       id="path2989-9-1"
       sodipodi:cx="285.3681"
       sodipodi:cy="224.54218"
       sodipodi:rx="10.606602"
       sodipodi:ry="10.606602"
       d="m 295.9747,224.54218 c 0,5.85786 -4.74873,10.6066 -10.6066,10.6066 -5.85786,0 -10.6066,-4.74874 -10.6066,-10.6066 0,-5.85787 4.74874,-10.60661 10.6066,-10.60661 5.85787,0 10.6066,4.74874 10.6066,10.60661 z"
       transform="matrix(0.54543135,0,0,0.54543135,-49.863537,149.10467)" />
    <path
       sodipodi:type="arc"
       style="fill:#000000"
       id="path2989-2-63-2"
       sodipodi:cx="285.3681"
       sodipodi:cy="224.54218"
       sodipodi:rx="10.606602"
       sodipodi:ry="10.606602"
       d="m 295.9747,224.54218 c 0,5.85786 -4.74873,10.6066 -10.6066,10.6066 -5.85786,0 -10.6066,-4.74874 -10.6066,-10.6066 0,-5.85787 4.74874,-10.60661 10.6066,-10.60661 5.85787,0 10.6066,4.74874 10.6066,10.60661 z"
       transform="matrix(0.54543135,0,0,0.54543135,50.136473,149.10467)" />
    <path
       sodipodi:type="arc"
       style="fill:#000000"
       id="path2989-2-6-7-0"
       sodipodi:cx="285.3681"
       sodipodi:cy="224.54218"
       sodipodi:rx="10.606602"
       sodipodi:ry="10.606602"
       d="m 295.9747,224.54218 c 0,5.85786 -4.74873,10.6066 -10.6066,10.6066 -5.85786,0 -10.6066,-4.74874 -10.6066,-10.6066 0,-5.85787 4.74874,-10.60661 10.6066,-10.60661 5.85787,0 10.6066,4.74874 10.6066,10.60661 z"
       transform="matrix(0.54543135,0,0,0.54543135,150.13647,149.10467)" />
    <path
       sodipodi:type="arc"
       style="fill:#000000"
       id="path2989-2-6-3-5-9"
       sodipodi:cx="285.3681"
       sodipodi:cy="224.54218"
       sodipodi:rx="10.606602"
       sodipodi:ry="10.606602"
       d="m 295.9747,224.54218 c 0,5.85786 -4.74873,10.6066 -10.6066,10.6066 -5.85786,0 -10.6066,-4.74874 -10.6066,-10.6066 0,-5.85787 4.74874,-10.60661 10.6066,-10.60661 5.85787,0 10.6066,4.74874 10.6066,10.60661 z"
       transform="matrix(0.54543135,0,0,0.54543135,250.13647,149.10467)" />
    <path
       sodipodi:type="arc"
       style="fill:#000000"
       id="path2989-2-6-3-7-7-1"
       sodipodi:cx="285.3681"
       sodipodi:cy="224.54218"
       sodipodi:rx="10.606602"
       sodipodi:ry="10.606602"
       d="m 295.9747,224.54218 c 0,5.85786 -4.74873,10.6066 -10.6066,10.6066 -5.85786,0 -10.6066,-4.74874 -10.6066,-10.6066 0,-5.85787 4.74874,-10.60661 10.6066,-10.60661 5.85787,0 10.6066,4.74874 10.6066,10.60661 z"
       transform="matrix(0.54543135,0,0,0.54543135,350.13646,149.10467)" />
    <path
       sodipodi:type="arc"
       style="fill:#000000"
       id="path2989-9-1-0"
       sodipodi:cx="285.3681"
       sodipodi:cy="224.54218"
       sodipodi:rx="10.606602"
       sodipodi:ry="10.606602"
       d="m 295.9747,224.54218 c 0,5.85786 -4.74873,10.6066 -10.6066,10.6066 -5.85786,0 -10.6066,-4.74874 -10.6066,-10.6066 0,-5.85787 4.74874,-10.60661 10.6066,-10.60661 5.85787,0 10.6066,4.74874 10.6066,10.60661 z"
       transform="matrix(0.54543135,0,0,0.54543135,-49.863537,249.10467)" />
    <path
       sodipodi:type="arc"
       style="fill:#000000"
       id="path2989-2-63-2-3"
       sodipodi:cx="285.3681"
       sodipodi:cy="224.54218"
       sodipodi:rx="10.606602"
       sodipodi:ry="10.606602"
       d="m 295.9747,224.54218 c 0,5.85786 -4.74873,10.6066 -10.6066,10.6066 -5.85786,0 -10.6066,-4.74874 -10.6066,-10.6066 0,-5.85787 4.74874,-10.60661 10.6066,-10.60661 5.85787,0 10.6066,4.74874 10.6066,10.60661 z"
       transform="matrix(0.54543135,0,0,0.54543135,50.136476,249.10467)" />
    <path
       sodipodi:type="arc"
       style="fill:#000000"
       id="path2989-2-6-7-0-5"
       sodipodi:cx="285.3681"
       sodipodi:cy="224.54218"
       sodipodi:rx="10.606602"
       sodipodi:ry="10.606602"
       d="m 295.9747,224.54218 c 0,5.85786 -4.74873,10.6066 -10.6066,10.6066 -5.85786,0 -10.6066,-4.74874 -10.6066,-10.6066 0,-5.85787 4.74874,-10.60661 10.6066,-10.60661 5.85787,0 10.6066,4.74874 10.6066,10.60661 z"
       transform="matrix(0.54543135,0,0,0.54543135,150.13647,249.10467)" />
    <path
       sodipodi:type="arc"
       style="fill:#000000"
       id="path2989-2-6-3-5-9-9"
       sodipodi:cx="285.3681"
       sodipodi:cy="224.54218"
       sodipodi:rx="10.606602"
       sodipodi:ry="10.606602"
       d="m 295.9747,224.54218 c 0,5.85786 -4.74873,10.6066 -10.6066,10.6066 -5.85786,0 -10.6066,-4.74874 -10.6066,-10.6066 0,-5.85787 4.74874,-10.60661 10.6066,-10.60661 5.85787,0 10.6066,4.74874 10.6066,10.60661 z"
       transform="matrix(0.54543135,0,0,0.54543135,250.13647,249.10467)" />
    <path
       sodipodi:type="arc"
       style="fill:#000000"
       id="path2989-2-6-3-7-7-1-2"
       sodipodi:cx="285.3681"
       sodipodi:cy="224.54218"
       sodipodi:rx="10.606602"
       sodipodi:ry="10.606602"
       d="m 295.9747,224.54218 c 0,5.85786 -4.74873,10.6066 -10.6066,10.6066 -5.85786,0 -10.6066,-4.74874 -10.6066,-10.6066 0,-5.85787 4.74874,-10.60661 10.6066,-10.60661 5.85787,0 10.6066,4.74874 10.6066,10.60661 z"
       transform="matrix(0.54543135,0,0,0.54543135,350.13646,249.10467)" />
  </g>
</svg>
